<svg xmlns="http://www.w3.org/2000/svg" viewBox="-0.025159988552331924 -0.002161082811653614 151.0982666015625 157.67367553710938">
  <defs>
    <!-- Gradient Definition -->
    <linearGradient id="gradient-fill" x1="0%" y1="0%" x2="100%" y2="0%">
        <stop offset="0%" stop-color="rgb(255, 99, 99)"/>
        <stop offset="100%" stop-color="rgb(67, 67, 255)" />
    </linearGradient>
  </defs>
  <path d="M21.36 44.64c0 8.32.07 16.64 0 25a4.56 4.56 0 0 0 2.74 4.59c7.27 4 14.44 8.25 21.66 12.37a3.86 3.86 0 0 1 2.12 3.68v22.3a4.11 4.11 0 0 1-2.33 3.85c-5.44 3.13-10.85 6.31-16.3 9.42-2.42 1.38-3.13 1-3.15-1.87 0-7.17-.08-14.34 0-21.51a4 4 0 0 0-2.25-4.05c-6.78-3.82-13.46-7.81-20.3-11.52A5.94 5.94 0 0 1 0 81q.14-24.58 0-49.14a5.77 5.77 0 0 1 3.29-5.76c5.13-2.78 10.13-5.8 15.2-8.69 2.38-1.36 2.85-1.09 2.86 1.73.03 8.5.01 17 .01 25.5zM51.52 13.35V4.06c0-2.59.62-3 2.8-1.72C60.71 6 67.09 9.6 73.39 13.37a3.6 3.6 0 0 0 4.31 0C85 9 92.39 4.8 99.72.53a3.59 3.59 0 0 1 4 .16c14.35 8.31 28.72 16.72 43.2 24.91 3 1.69 4.3 3.68 4.14 7.15-.25 5.39 0 10.8-.08 16.2 0 2.87-.57 3.16-3.1 1.7Q125.68 37.89 103.54 25a3.39 3.39 0 0 0-4.05.08c-7.31 4.33-14.7 8.52-22 12.79a3.36 3.36 0 0 1-3.72.09q-10.15-5.83-20.3-11.62a3.49 3.49 0 0 1-2-3.43c.09-3.18.05-6.37.05-9.56zM103.19 102.76V90.53a3.91 3.91 0 0 1 1.88-3.82q10.36-6 20.72-11.93a3.46 3.46 0 0 1 3.76 0c5.51 3.21 11 6.42 16.57 9.55 2.13 1.2 1.69 2.13-.06 3.14-5.91 3.4-11.76 6.9-17.74 10.15a5.79 5.79 0 0 0-3.42 5.85c0 8.32-1.16 16.61-.91 24.94a3.11 3.11 0 0 1-1.8 3q-22.12 12.71-44.19 25.5a4.47 4.47 0 0 1-5.12-.09c-5.16-3.09-10.39-6.09-15.59-9.11-.69-.4-1.58-.68-1.65-1.57-.09-1.08.92-1.38 1.67-1.82 14.27-8.22 28.52-16.47 42.83-24.62 2.16-1.24 3.23-2.65 3.1-5.25-.24-3.89-.05-7.79-.05-11.69z" fill="url(#gradient-fill)"></path>
  <path d="M47.84 28.31c0 7.7-.08 15.4 0 23.1a5.37 5.37 0 0 1-3 5.36c-5.4 3-10.74 6.14-16.1 9.24-2.59 1.5-3.68.91-3.69-2.23V26.34v-9.82a4.5 4.5 0 0 1 2.45-4.35c5.55-3.12 11-6.35 16.57-9.51 3.12-1.78 3.76-1.4 3.77 2.28.01 7.79 0 15.58 0 23.37zM73.44 86.56v11.42a3.58 3.58 0 0 1-1.92 3.49c-5.53 3.16-11 6.41-16.53 9.58-3.08 1.76-3.48 1.51-3.48-2.12 0-6.9-.07-13.81 0-20.71A4.41 4.41 0 0 0 49 83.78c-6.19-3.44-12.27-7.06-18.41-10.58-2.23-1.29-2.3-2.26-.13-3.52 5.5-3.21 11-6.35 16.53-9.58a4.53 4.53 0 0 1 5 0c6 3.51 12.09 7 18.21 10.39 2.35 1.29 3.52 2.89 3.34 5.7-.23 3.43-.06 6.9-.06 10.35zM77.59 86.27v-10.9a4.19 4.19 0 0 1 2.22-4.16c6.6-3.74 13.19-7.56 19.78-11.35a4 4 0 0 1 4.29.15c5.6 3.22 11.22 6.4 16.8 9.65 2.31 1.35 2.3 2-.1 3.43-6.18 3.63-12.37 7.26-18.63 10.75a4.25 4.25 0 0 0-2.46 4.24c.08 7.08.05 14.17 0 21.26 0 3-.56 3.36-3.24 1.83-5.61-3.21-11.17-6.51-16.78-9.71A3.58 3.58 0 0 1 77.58 98c.03-3.94.01-7.83.01-11.73zM99.51 43v9.82a3.55 3.55 0 0 1-2 3.45Q87.45 62.09 77.38 68a3.35 3.35 0 0 1-3.73 0q-10.07-5.89-20.19-11.7a3.57 3.57 0 0 1-2-3.45V33.2c0-2.6.79-3 3.07-1.64 6.35 3.67 12.73 7.31 19.06 11a3.25 3.25 0 0 0 3.69 0c6.25-3.66 12.56-7.24 18.84-10.87 2.6-1.5 3.26-1.19 3.3 1.76.13 3.2.09 6.39.09 9.55zM103.2 42.72v-9.3c.06-2.75.87-3.26 3.26-1.91 6.63 3.74 13.21 7.56 19.81 11.36 7.2 4.16 14.36 8.4 21.62 12.48a5.25 5.25 0 0 1 3.11 5.07c-.05 6.11 0 12.22 0 18.33 0 3-.82 3.38-3.54 1.8-13.46-7.81-26.98-15.63-40.52-23.33-2.58-1.47-4.06-3.13-3.79-6.27.23-2.73.05-5.49.05-8.23zM96.4 116.48c-.08.84-.73 1.11-1.36 1.47q-21.18 12.17-42.32 24.39a4 4 0 0 1-4.64.08c-5.47-3.26-11.06-6.34-16.55-9.58-2.65-1.57-2.67-2.17 0-3.73Q47.25 120 63 110.94c3.53-2 7.1-4 10.6-6.08a3.19 3.19 0 0 1 3.67 0c5.91 3.39 11.86 6.73 17.73 10.14.64.32 1.32.64 1.4 1.48z" fill="url(#gradient-fill)"></path>
</svg>
